# xmcd
#
# Track frame offsets:
#	150
#	12364
#	27706
#	41606
#	53376
#	67680
#	79286
#	88293
#	98083
#	109035
#	118402
#	128855
#
# Disc length: 1862 seconds
#
# Revision: 0
# Processed by: cddbd v1.5.1PL0 Copyright (c) Steve Scherf et al.
# Submitted via: EasyCDDAExtractor 4.6.9.1
#
DISCID=9c07440c
DTITLE=Russell Wilson - Trooper Lee
DYEAR=2002
DGENRE=Bluegrass
TTITLE0=Trooper Lee
TTITLE1=There Is A Trap
TTITLE2=Takes A Worried Man
TTITLE3=Listening For My Name
TTITLE4=I Am Weary
TTITLE5=Take A Little Time
TTITLE6=Love Will Keep Us Together
TTITLE7=He Is Mine
TTITLE8=Making Heaven My Home
TTITLE9=Drop No Tears
TTITLE10=Who Will Sing For Me
TTITLE11=Gold Watch and Chain
EXTD=
EXTT0=
EXTT1=
EXTT2=
EXTT3=
EXTT4=
EXTT5=
EXTT6=
EXTT7=
EXTT8=
EXTT9=
EXTT10=
EXTT11=
PLAYORDER=
